# xmcd CD database file
#
# Track frame offsets:
#	150
#	22960
#	39982
#	52765
#	69515
#	93010
#	110707
#	128155
#	149040
#
# Disc length: 2273 seconds
#
# Revision: 4
# Processed by: cddbd v1.5.2PL0 Copyright (c) Steve Scherf et al.
# Submitted via: CDex 1.51
#
DISCID=7308df09
DTITLE=The Robert Cray Band - False Accusations
DYEAR=1986
DGENRE=Blues
TTITLE0=Porch Light
TTITLE1=Change Of Heart, Change Of Mind (S.O.F.T.)
TTITLE2=She's Gone
TTITLE3=Playin' In The Dirt
TTITLE4=I've Slipped Her Mind
TTITLE5=False Accusations
TTITLE6=The Last Time (I Get Burned Like This)
TTITLE7=Payin' For It Now
TTITLE8=Sonny
EXTD=YEAR: 1986
EXTT0=
EXTT1=
EXTT2=
EXTT3=
EXTT4=
EXTT5=
EXTT6=
EXTT7=
EXTT8=
PLAYORDER=
